<?xml version="1.0" encoding="utf-8"?>
<!-- Generator: Adobe Illustrator 27.0.1, SVG Export Plug-In . SVG Version: 6.00 Build 0)  -->
<svg version="1.1" id="Layer_1" xmlns="http://www.w3.org/2000/svg" xmlns:xlink="http://www.w3.org/1999/xlink" x="0px" y="0px"
	 viewBox="0 0 197 29" style="enable-background:new 0 0 197 29;" xml:space="preserve">
<style type="text/css">
	.st0{fill:#124D8F;}
	.st1{fill:#D09006;}
</style>
<path class="st0" d="M7.4,7.3c-0.6,0-1.2-0.2-1.6-0.7c-0.4-0.4-0.6-1-0.6-1.6s0.2-1.1,0.6-1.6c0.4-0.4,1-0.7,1.6-0.7
	C8.1,2.8,8.6,3,9,3.5c0.4,0.4,0.7,1,0.7,1.6S9.5,6.2,9,6.7C8.6,7.1,8.1,7.3,7.4,7.3z M11,24.4c-1.7,0-3-0.4-3.9-1.2
	c-0.9-0.8-1.3-2-1.3-3.6v-7h-5v-2.5H9v9.2c0,0.8,0.2,1.4,0.6,1.8c0.4,0.4,1,0.6,1.8,0.6c0.5,0,0.9,0,1.4-0.1s0.9-0.2,1.5-0.4v2.7
	c-0.4,0.2-0.9,0.3-1.5,0.4C12.2,24.3,11.6,24.4,11,24.4z"/>
<path class="st0" d="M18.2,24.1v-14h3.2v2.1c1.1-1.5,2.5-2.3,4.3-2.3c1,0,1.8,0.2,2.5,0.6c0.7,0.4,1.3,1,1.7,1.8
	c0.4,0.7,0.6,1.6,0.6,2.6v9.2h-3.2v-8.3c0-1-0.3-1.8-0.8-2.4c-0.6-0.6-1.3-0.9-2.2-0.9c-0.6,0-1.1,0.1-1.7,0.4
	c-0.5,0.3-0.9,0.6-1.3,1.1v10.2H18.2z"/>
<path class="st0" d="M35,24.1v-14h3.2v2.1c1.1-1.5,2.5-2.3,4.3-2.3c1,0,1.8,0.2,2.5,0.6c0.7,0.4,1.3,1,1.7,1.8
	c0.4,0.7,0.6,1.6,0.6,2.6v9.2h-3.2v-8.3c0-1-0.3-1.8-0.8-2.4c-0.6-0.6-1.3-0.9-2.2-0.9c-0.6,0-1.1,0.1-1.7,0.4
	c-0.5,0.3-0.9,0.6-1.3,1.1v10.2H35z"/>
<path class="st0" d="M57.9,24.4c-1.3,0-2.5-0.3-3.6-1c-1.1-0.7-1.9-1.5-2.5-2.6c-0.6-1.1-0.9-2.3-0.9-3.7c0-1.4,0.3-2.6,0.9-3.7
	c0.6-1.1,1.5-2,2.5-2.6c1.1-0.7,2.3-1,3.6-1s2.5,0.3,3.6,1c1.1,0.6,1.9,1.5,2.5,2.6c0.6,1.1,0.9,2.3,0.9,3.7c0,1.4-0.3,2.6-0.9,3.7
	c-0.6,1.1-1.5,2-2.5,2.6C60.4,24.1,59.2,24.4,57.9,24.4z M57.9,21.7c0.8,0,1.4-0.2,2-0.6c0.6-0.4,1.1-0.9,1.4-1.6
	c0.4-0.7,0.5-1.5,0.5-2.4c0-0.9-0.2-1.7-0.5-2.3c-0.3-0.7-0.8-1.2-1.4-1.6c-0.6-0.4-1.3-0.6-2-0.6s-1.4,0.2-2,0.6
	c-0.6,0.4-1,0.9-1.4,1.6c-0.3,0.7-0.5,1.4-0.5,2.3c0,0.9,0.2,1.7,0.5,2.4c0.4,0.7,0.8,1.2,1.4,1.6C56.4,21.5,57.1,21.7,57.9,21.7z"
	/>
<path class="st0" d="M73.1,24.1l-5.9-14h3.4l4.1,10.3l4-10.3h3.3l-5.9,14H73.1z"/>
<path class="st0" d="M89.8,24.4c-1,0-1.9-0.2-2.6-0.5c-0.8-0.4-1.4-0.9-1.8-1.5c-0.4-0.6-0.6-1.4-0.6-2.2c0-0.9,0.2-1.6,0.6-2.2
	c0.4-0.6,1.1-1.1,1.9-1.4c0.8-0.3,1.8-0.5,2.9-0.5c0.7,0,1.3,0.1,2,0.2c0.6,0.1,1.3,0.4,1.9,0.7v-1.4c0-1-0.3-1.7-0.8-2.2
	c-0.5-0.5-1.4-0.8-2.5-0.8c-0.6,0-1.3,0.1-2,0.3c-0.7,0.2-1.4,0.5-2.3,0.9l-1.2-2.3c1.1-0.5,2.1-0.9,3.1-1.2c1-0.2,2-0.4,2.9-0.4
	c1.8,0,3.3,0.5,4.3,1.4c1,0.9,1.5,2.2,1.5,3.9v9h-3.1v-1.5c-0.6,0.6-1.3,1-2,1.3C91.4,24.2,90.7,24.4,89.8,24.4z M87.8,20
	c0,0.7,0.3,1.2,0.8,1.6c0.5,0.4,1.3,0.6,2.2,0.6c0.7,0,1.3-0.1,1.8-0.3c0.6-0.2,1.1-0.5,1.6-0.9v-2.2c-0.5-0.2-1-0.4-1.6-0.5
	C92,18.1,91.4,18,90.8,18c-0.9,0-1.7,0.2-2.2,0.6C88,18.9,87.8,19.4,87.8,20z"/>
<path class="st0" d="M110.7,24.4c-1.8,0-3.1-0.4-4-1.1c-0.9-0.8-1.3-1.9-1.3-3.4v-7.2h-4.5v-2.5h4.5V6.2l3.2-0.7v4.5h5.9v2.5h-5.9
	v6.6c0,0.9,0.2,1.5,0.6,1.9c0.4,0.4,1.1,0.6,2,0.6c0.5,0,1,0,1.5-0.1c0.5-0.1,1.2-0.3,1.8-0.5v2.7c-0.6,0.2-1.2,0.3-1.9,0.4
	C112,24.3,111.3,24.4,110.7,24.4z"/>
<path class="st0" d="M125.4,24.4c-1.4,0-2.6-0.3-3.7-1c-1.1-0.7-2-1.5-2.6-2.6c-0.6-1.1-1-2.3-1-3.7c0-1.4,0.3-2.6,0.9-3.7
	c0.6-1.1,1.4-1.9,2.5-2.6c1.1-0.7,2.2-1,3.6-1c1.4,0,2.6,0.3,3.6,1c1.1,0.6,1.9,1.5,2.5,2.6c0.6,1.1,0.9,2.3,0.9,3.7v0.8h-10.9
	c0.1,0.8,0.3,1.4,0.7,2c0.4,0.6,0.9,1,1.5,1.4c0.6,0.3,1.3,0.5,2.1,0.5c0.7,0,1.4-0.1,2-0.4c0.6-0.3,1.2-0.7,1.6-1.2l2.1,1.9
	c-0.8,0.8-1.7,1.4-2.7,1.8C127.6,24.2,126.6,24.4,125.4,24.4z M121.3,15.9h7.8c-0.1-0.7-0.4-1.3-0.7-1.8c-0.4-0.5-0.8-0.9-1.4-1.2
	c-0.5-0.3-1.2-0.4-1.8-0.4c-0.7,0-1.2,0.1-1.8,0.4c-0.5,0.3-1,0.7-1.3,1.2C121.7,14.6,121.4,15.2,121.3,15.9z"/>
<path class="st1" d="M145.8,28.1c-1.7-0.8-3.1-1.8-4.4-3.1c-1.2-1.3-2.2-2.8-2.9-4.5c-0.7-1.7-1-3.5-1-5.5c0-2,0.3-3.8,1-5.5
	c0.7-1.7,1.7-3.2,2.9-4.5c1.3-1.3,2.7-2.3,4.4-3.1l1.3,2.2c-2.2,1.1-3.9,2.6-5,4.5c-1.1,1.8-1.7,4-1.7,6.4c0,2.5,0.6,4.6,1.7,6.5
	c1.1,1.8,2.8,3.3,5,4.5L145.8,28.1z"/>
<path class="st1" d="M157.2,22.1c-1,0-1.8-0.2-2.5-0.6c-0.7-0.4-1.3-1-1.7-1.8c-0.4-0.7-0.6-1.6-0.6-2.6V7.8h3.2v8.3
	c0,1,0.3,1.9,0.8,2.5c0.6,0.6,1.3,0.9,2.2,0.9c0.6,0,1.2-0.1,1.7-0.4c0.5-0.3,0.9-0.6,1.3-1.1V7.8h3.2v14h-3.2v-2.1
	C160.4,21.3,159,22.1,157.2,22.1z"/>
<path class="st1" d="M175.2,22.1c-1.3,0-2.5-0.2-3.6-0.5c-1.1-0.4-2-0.9-2.8-1.5l1.5-2.1c1,0.6,1.8,1,2.6,1.3
	c0.8,0.2,1.5,0.4,2.3,0.4c1,0,1.8-0.2,2.4-0.5c0.6-0.3,0.9-0.8,0.9-1.3c0-0.4-0.2-0.8-0.5-1c-0.3-0.2-0.8-0.4-1.3-0.5
	s-1.1-0.2-1.8-0.3c-0.7-0.1-1.3-0.2-2-0.4c-0.7-0.1-1.3-0.4-1.8-0.6c-0.5-0.3-1-0.7-1.3-1.1c-0.3-0.5-0.5-1.2-0.5-2
	c0-0.9,0.2-1.7,0.7-2.3c0.5-0.7,1.2-1.2,2-1.5c0.9-0.4,1.9-0.5,3.1-0.5c1.1,0,2.1,0.1,3.1,0.4c1,0.3,2,0.7,2.9,1.4l-1.5,2.1
	c-0.7-0.5-1.5-0.9-2.3-1.1c-0.8-0.2-1.5-0.3-2.3-0.3c-0.9,0-1.6,0.1-2.1,0.4c-0.5,0.3-0.8,0.7-0.8,1.2c0,0.4,0.2,0.8,0.5,1
	s0.8,0.4,1.3,0.5c0.6,0.1,1.2,0.2,1.8,0.3s1.3,0.2,2,0.4c0.7,0.1,1.3,0.4,1.8,0.6c0.6,0.3,1,0.7,1.3,1.2c0.3,0.5,0.5,1.2,0.5,2
	c0,0.9-0.3,1.7-0.8,2.4c-0.5,0.7-1.3,1.2-2.2,1.6C177.4,21.9,176.4,22.1,175.2,22.1z"/>
<path class="st1" d="M188,1.9c1.7,0.8,3.1,1.8,4.4,3.1c1.3,1.3,2.2,2.8,2.9,4.5c0.7,1.7,1,3.5,1,5.5c0,2-0.3,3.8-1,5.5
	c-0.7,1.7-1.6,3.2-2.9,4.5c-1.2,1.3-2.7,2.3-4.4,3.1l-1.3-2.2c2.2-1.1,3.9-2.6,5-4.5c1.1-1.8,1.7-4,1.7-6.4c0-2.5-0.6-4.6-1.7-6.4
	c-1.1-1.8-2.8-3.3-5-4.5L188,1.9z"/>
</svg>
